<svg xmlns:dc="http://purl.org/dc/elements/1.1/" xmlns:cc="http://creativecommons.org/ns#" xmlns:rdf="http://www.w3.org/1999/02/22-rdf-syntax-ns#" xmlns:svg="http://www.w3.org/2000/svg" xmlns="http://www.w3.org/2000/svg" xmlns:sodipodi="http://sodipodi.sourceforge.net/DTD/sodipodi-0.dtd" xmlns:inkscape="http://www.inkscape.org/namespaces/inkscape" viewBox="0 0 16.933333 21.1666675" version="1.1" x="0px" y="0px"><g transform="translate(0,-280.06664)"><path d="m 11.617629,280.91979 c -0.744114,-0.30824 -1.544082,-0.5108 -2.3801123,-0.58825 v 5.18203 c 0.1446742,0.0367 0.2857759,0.0839 0.421772,0.14025 0.1376889,0.0572 0.2704309,0.12425 0.3974313,0.19947 l 3.664478,-3.66448 c -0.629257,-0.52183 -1.337653,-0.95178 -2.103569,-1.26902 z m -1.9583403,10.49269 z m -0.421772,0.14057 v 5.18203 c 0.8360303,-0.0774 1.6359983,-0.27999 2.3801123,-0.58823 0.765916,-0.31726 1.474312,-0.74721 2.103569,-1.26904 l -3.664478,-3.66448 c -0.1263122,0.0751 -0.2592394,0.14195 -0.3974313,0.19931 -0.1359961,0.0563 -0.2769129,0.10366 -0.421772,0.14041 z m -2.3610617,-0.33954 -3.664136,3.6643 c 0.629233,0.52183 1.337628,0.95178 2.103544,1.26904 0.744114,0.30824 1.544082,0.51078 2.380139,0.58823 v -5.18203 c -0.14486,-0.0367 -0.285962,-0.0839 -0.421958,-0.14023 -0.137345,-0.0569 -0.270298,-0.12374 -0.397589,-0.19931 z M 5.446911,289.30417 H 0.26488805 c 0.07744,0.83585 0.279982,1.63582 0.588221,2.37993 0.31728895,0.7661 0.74755395,1.47447 1.26920595,2.10373 l 3.664162,-3.66414 c -0.07557,-0.12716 -0.142451,-0.26024 -0.19931,-0.39759 -0.05633,-0.13602 -0.103479,-0.27709 -0.140256,-0.42193 z m 0.339566,-2.36124 -3.664162,-3.66414 c -0.521652,0.62926 -0.951917,1.33763 -1.26920595,2.10373 -0.308239,0.74411 -0.510778,1.54408 -0.588221,2.37995 H 5.446911 c 0.03678,-0.14486 0.08393,-0.28596 0.140256,-0.42196 0.05686,-0.13734 0.123745,-0.27043 0.19931,-0.39758 z m 10.293905,4.74085 z m 0.588063,-2.37961 h -5.182023 c -0.03678,0.14468 -0.08393,0.28575 -0.140255,0.42175 -0.05718,0.13769 -0.124248,0.27046 -0.19947,0.39743 l 3.664479,3.66448 c 0.521679,-0.62907 0.951785,-1.33728 1.269047,-2.10354 v 0 c 0.308399,-0.7443 0.510778,-1.54393 0.588222,-2.37961 z m -5.322622,-1.96347 z m 3.465353,-4.06191 -3.664479,3.66448 c 0.07506,0.12631 0.141949,0.25924 0.199311,0.39743 0.05633,0.136 0.103637,0.27691 0.140414,0.42177 h 5.182023 c -0.07744,-0.83571 -0.279823,-1.63533 -0.588222,-2.37961 l -0.0032,-0.008 c -0.316891,-0.76335 -0.745834,-1.46883 -1.265793,-2.09587 z m -7.536788,2.37519 z m 0.421614,-0.14041 v -5.18203 c -0.836057,0.0774 -1.636025,0.28001 -2.380139,0.58825 -0.765916,0.31724 -1.474311,0.74719 -2.103544,1.26902 l 3.664294,3.66448 c 0.126313,-0.0751 0.259398,-0.14195 0.397775,-0.19947 0.135996,-0.0564 0.276913,-0.1035 0.421614,-0.14025 z" style="" fill="#000000" fill-rule="evenodd" stroke-width="0.26458335"/></g><text x="0" y="31.933334" fill="#000000" font-size="5px" font-weight="bold" font-family="'Helvetica Neue', Helvetica, Arial-Unicode, Arial, Sans-serif">Created by Alvida</text><text x="0" y="36.933334" fill="#000000" font-size="5px" font-weight="bold" font-family="'Helvetica Neue', Helvetica, Arial-Unicode, Arial, Sans-serif">from the Noun Project</text></svg>